<?xml version="1.0" standalone="no"?><svg xmlns="http://www.w3.org/2000/svg" viewBox="0 0 1440 320"><path fill="#e0f4f5" fill-opacity="1" d="M0,320L26.7,314.7C53.3,309,107,299,160,288C213.3,277,267,267,320,256C373.3,245,427,235,480,245.3C533.3,256,587,288,640,277.3C693.3,267,747,213,800,176C853.3,139,907,117,960,133.3C1013.3,149,1067,203,1120,229.3C1173.3,256,1227,256,1280,234.7C1333.3,213,1387,171,1413,149.3L1440,128L1440,0L1413.3,0C1386.7,0,1333,0,1280,0C1226.7,0,1173,0,1120,0C1066.7,0,1013,0,960,0C906.7,0,853,0,800,0C746.7,0,693,0,640,0C586.7,0,533,0,480,0C426.7,0,373,0,320,0C266.7,0,213,0,160,0C106.7,0,53,0,27,0L0,0Z"></path></svg>