<?xml version="1.0" standalone="no"?><svg xmlns="http://www.w3.org/2000/svg" viewBox="0 0 1440 320"><path fill="#e0f4f5" fill-opacity="1" d="M0,192L30,165.3C60,139,120,85,180,85.3C240,85,300,139,360,186.7C420,235,480,277,540,282.7C600,288,660,256,720,208C780,160,840,96,900,74.7C960,53,1020,75,1080,96C1140,117,1200,139,1260,149.3C1320,160,1380,160,1410,160L1440,160L1440,320L1410,320C1380,320,1320,320,1260,320C1200,320,1140,320,1080,320C1020,320,960,320,900,320C840,320,780,320,720,320C660,320,600,320,540,320C480,320,420,320,360,320C300,320,240,320,180,320C120,320,60,320,30,320L0,320Z"></path></svg>