<?xml version="1.0" standalone="no"?><svg xmlns="http://www.w3.org/2000/svg" viewBox="0 0 1440 320"><path fill="#fff" fill-opacity="1" d="M0,0L30,16C60,32,120,64,180,80C240,96,300,96,360,96C420,96,480,96,540,133.3C600,171,660,245,720,277.3C780,309,840,299,900,266.7C960,235,1020,181,1080,160C1140,139,1200,149,1260,165.3C1320,181,1380,203,1410,213.3L1440,224L1440,320L1410,320C1380,320,1320,320,1260,320C1200,320,1140,320,1080,320C1020,320,960,320,900,320C840,320,780,320,720,320C660,320,600,320,540,320C480,320,420,320,360,320C300,320,240,320,180,320C120,320,60,320,30,320L0,320Z"></path></svg>